<?xml version="1.0" encoding="UTF-8"?>
<!DOCTYPE svg PUBLIC "-//W3C//DTD SVG 1.1//EN" "http://www.w3.org/Graphics/SVG/1.1/DTD/svg11.dtd">
<!-- Creator: CorelDRAW 2020 (64-Bit) -->
<svg xmlns="http://www.w3.org/2000/svg" xml:space="preserve" width="111.954mm" height="111.954mm" version="1.1" style="shape-rendering:geometricPrecision; text-rendering:geometricPrecision; image-rendering:optimizeQuality; fill-rule:evenodd; clip-rule:evenodd"
viewBox="0 0 11181.12 11181.12"
 xmlns:xlink="http://www.w3.org/1999/xlink"
 xmlns:xodm="http://www.corel.com/coreldraw/odm/2003">
 <defs>
  <style type="text/css">
   <![CDATA[
    .fil0 {fill:#1034AC}
   ]]>
  </style>
 </defs>
 <g id="Capa_x0020_1">
  <metadata id="CorelCorpID_0Corel-Layer"/>
  <path class="fil0" d="M5590.56 0c3087.58,0 5590.56,2502.98 5590.56,5590.56 0,3087.58 -2502.98,5590.56 -5590.56,5590.56 -3087.58,0 -5590.56,-2502.98 -5590.56,-5590.56 0,-3087.58 2502.98,-5590.56 5590.56,-5590.56zm2726.41 4730.84l0 289.05 -165.04 0 0 -578.1 165.04 0 165.17 289.05 0 -289.05 165.17 0 0 578.1 -165.17 0 -165.17 -289.05zm-650.97 -6.62l0 1.69c0,53.69 23.12,97.25 69.34,130.5 22.83,14.23 46.51,21.42 71.03,21.42l13.24 0c60.18,0 104.3,-34.11 132.06,-102.32 4.36,-18.18 6.62,-34.25 6.62,-47.92l0 -8.31c0,-58.07 -28.04,-103.16 -84.28,-135.44 -20.29,-9.87 -41.86,-14.8 -64.4,-14.8 -57.23,0 -100.2,28.04 -128.82,84.14 -9.87,19.59 -14.8,43.26 -14.8,71.03zm146.15 303.99c-85.69,0 -158.7,-29.46 -219.01,-88.37 -60.46,-58.91 -90.62,-129.94 -90.62,-213.09 0,-83.15 30.16,-154.18 90.62,-213.09 60.31,-58.91 133.32,-88.37 219.01,-88.37 85.54,0 158.55,29.45 219,88.37 60.46,58.9 90.62,129.93 90.62,213.09 0,83.14 -30.16,154.17 -90.62,213.09 -60.45,58.9 -133.46,88.37 -219,88.37zm-505.39 -8.32l0 -578.1 165.04 0 0 578.1 -165.04 0zm-198.72 -227.04l169.26 0c-17.62,79.2 -69.76,145.58 -156.44,199 -44.39,24.24 -92.87,36.36 -145.43,36.36 -93.3,0 -174.2,-39.18 -242.69,-117.26 -44.11,-56.23 -66.1,-117.82 -66.1,-185.04 0,-105.98 47.35,-190.68 142.06,-254.39 51.44,-31.85 108.09,-47.77 170.1,-47.77 82.58,0 157.99,31.85 226.2,95.69 40.73,46.51 65.82,96.4 75.25,149.53l-166.02 0c-11.83,-34.39 -37.2,-62.85 -75.96,-85.12 -20.43,-9.87 -41.86,-14.8 -64.41,-14.8 -57.36,0 -100.2,28.04 -128.81,84.14 -10.01,19.59 -14.94,43.26 -14.94,71.03l0 1.69c0,53.69 23.11,97.25 69.34,130.5 22.83,14.23 46.5,21.42 71.03,21.42l13.24 0c55.11,0 96.54,-28.32 124.3,-84.98zm-782.88 144.46l-30.44 82.58 -175.18 0 231.28 -578.1 148.68 0 231.13 578.1 -175.04 0 -29.31 -82.58 -201.11 0zm157.28 -123.88l-54.39 -153.61 -56.94 153.61 111.33 0zm-370.37 206.47l-412.79 0 0 -138.67 227.04 -302.3 -227.04 0 0 -137.13 412.79 0 0 137.13 -227.04 302.3 227.04 0 0 138.67zm-619.26 0l0 -578.1 165.04 0 0 578.1 -165.04 0zm-41.43 -578.1l0 137.13 -123.88 0 0 440.98 -165.17 0 0 -440.98 -123.74 0 0 -137.13 412.79 0zm-733.7 495.52l-30.44 82.58 -175.18 0 231.28 -578.1 148.68 0 231.13 578.1 -175.04 0 -29.31 -82.58 -201.11 0zm157.28 -123.88l-54.39 -153.61 -56.94 153.61 111.33 0zm-1037.11 -369.95l247.75 0c2.97,0 19.03,63.28 47.92,189.98 5.49,17.34 17.62,66.8 36.22,148.54l3.38 0 80.9 -338.52 252.69 0 0 576.42 -166.86 0 0 -368.25c-2.68,0 -11.98,32.98 -28.04,99.07 -2.12,5.77 -26.92,95.55 -74.28,269.18l-130.5 0c-2.4,0 -12.4,-34.67 -29.73,-104.01l-72.58 -264.24 -1.7 0 0 368.25 -168.42 0 0 -573.03c0.14,-2.26 1.27,-3.39 3.25,-3.39zm-209.71 576.42l0 -578.1 165.04 0 0 578.1 -165.04 0zm-294.12 -578.1l0 436.04 252.69 0 0 142.06 -412.79 0 0 -578.1 160.11 0zm-358.82 351.06l169.26 0c-17.62,79.2 -69.76,145.58 -156.44,199 -44.39,24.24 -92.87,36.36 -145.43,36.36 -93.3,0 -174.2,-39.18 -242.69,-117.26 -44.11,-56.23 -66.1,-117.82 -66.1,-185.04 0,-105.98 47.35,-190.68 142.06,-254.39 51.44,-31.85 108.09,-47.77 170.1,-47.77 82.58,0 157.99,31.85 226.2,95.69 40.73,46.51 65.82,96.4 75.25,149.53l-166.02 0c-11.83,-34.39 -37.2,-62.85 -75.96,-85.12 -20.43,-9.87 -41.86,-14.8 -64.41,-14.8 -57.36,0 -100.2,28.04 -128.81,84.14 -10.01,19.59 -14.94,43.26 -14.94,71.03l0 1.69c0,53.69 23.11,97.25 69.34,130.5 22.83,14.23 46.5,21.42 71.03,21.42l13.24 0c55.11,0 96.54,-28.32 124.3,-84.98zm1274.73 -1000.29c-212.45,0 -413.84,-37.62 -604.16,-112.87l43.15 -494.63c161.56,55.35 296.55,83 404.99,83 117.28,0 200.82,-24.35 250.63,-73.03 49.8,-48.7 74.68,-132.78 74.68,-252.3l0 -1072.21 -521.17 0 0 -448.17 1135.29 0 0 1560.23c0,539.97 -261.13,809.97 -783.42,809.97zm3285.42 -2370.2l0 448.17 -239.04 0 -647.31 1875.55 -607.49 0 -644 -1875.55 -245.65 0 0 -448.17 700.44 0 494.62 1603.38 494.62 -1603.38 693.8 0zm-2171.28 4381.13c-3.8,8.28 -3.9,12.37 -7.62,22.32 -7.88,20.94 -10.93,22.17 7.93,69.89l213.29 0.31c6.21,76.36 -7.93,432.39 1.24,524.2 -114.75,35.08 -222.46,191.01 -397.51,427.11 -133.61,180.18 -605.69,847.27 -729.52,936.74 -49.15,-35.46 -93.62,-68.68 -134.17,-99.55l166.79 -41.06c4.95,-1.22 8.18,-5.85 7.61,-10.92 -0.57,-5.06 -4.74,-8.87 -9.84,-8.96l-249.51 -4.59c-46.05,-35.88 -86.21,-67.59 -121.86,-94.73l343.02 -84.43c4.95,-1.22 8.18,-5.85 7.61,-10.92 -0.57,-5.06 -4.74,-8.87 -9.84,-8.96l-551.18 -10.15c-157.29,-16.01 -287.03,216.07 -882,791.11 -151.96,146.93 -234.43,291.68 -417.27,452.95 -86.83,76.63 -168.53,140.62 -252.04,183.05 -152.83,77.73 -250.51,142.88 -346.44,223.23 -868.74,-898.16 -1403.52,-2121.34 -1403.52,-3469.58 0,-2756.63 2234.69,-4991.32 4991.32,-4991.32 2756.63,0 4991.32,2234.69 4991.32,4991.32 0,1395.35 -572.82,2656.74 -1495.82,3562.49 -167.57,-252.54 -394.37,-526.55 -688.76,-823.6l252.6 -62.18c4.95,-1.22 8.18,-5.85 7.61,-10.92 -0.57,-5.06 -4.74,-8.87 -9.84,-8.96l-337.45 -6.21c-29.43,-30.03 -53.67,-55.02 -71.53,-73.84 -3.2,-3.38 -6.33,-6.51 -9.49,-9.75l477.06 -97.89c5.94,-1.22 9.82,-5.85 9.14,-10.92 -0.69,-5.06 -5.69,-8.87 -11.8,-8.96l-676.12 -10.38c-3.02,-0.05 -5.76,0.75 -7.93,2.27 -195.32,-15.22 -295.05,321.64 -486.28,490.8 -7.72,-5.39 -18.71,-24.14 -22.02,-17.71l-1313.51 -1571.31 363.63 -89.51c4.95,-1.22 8.18,-5.85 7.61,-10.92 -0.57,-5.06 -4.74,-8.87 -9.84,-8.96l-459.9 -8.47 -60.98 -72.95 -15.73 -19.35 404.51 -99.57c4.95,-1.22 8.18,-5.85 7.61,-10.92 -0.57,-5.06 -4.74,-8.87 -9.84,-8.96l-513.95 -9.46c-12.98,-13.92 -25.6,-27.01 -37.87,-39.24l931.55 -75.75c5.35,-0.44 9.43,-4.98 9.27,-10.36 -0.17,-5.32 -4.41,-9.6 -9.75,-9.78l-1121.63 -38.05c-2.44,-0.75 -4.85,-1.46 -7.26,-2.11l1.14 -523.21 213.55 -0.62c4.2,-9.01 3.74,-12.27 7.42,-22.54 7.66,-21.29 11.8,-28.95 -8.55,-70.87l-210.81 -1.15c-12.07,-54.29 11.19,-148.84 -6.37,-192.82 -6.52,-10.93 -35.85,-18.03 -46.43,-17.36 -10.1,0.63 -40.46,4.98 -44.75,25.87 -6.52,31.38 4.4,148.16 -4.72,184.64l-211.57 2.38zm-679.88 2199.72c151.96,-223.76 801.57,-1164.23 994.4,-1148.75 90,7.21 225.31,161.17 251.01,289.97 32.49,163.1 -102.27,256.92 -83.41,417.88 24,203.93 423.17,237.55 587.5,440.9 -41.44,190.82 -201.16,272.65 -273.69,441.82 -145.79,340.23 483.67,469.48 753.55,1298.07 -338.21,-120.05 -2083.78,-1516.34 -2229.36,-1739.88zm3036.16 764.49c42.8,-176.63 125.11,-315.88 295.24,-361.11 87.99,82.78 172.53,303.53 464.68,644.47 88.58,103.35 175.96,258.2 246.5,422.23 -50.65,40.97 -101.94,81.18 -154.19,120.18 -118.3,-106.47 -245.26,-229.5 -331.97,-304.53 -251.53,-217.58 -320.85,-327.97 -520.26,-521.24zm-5320.09 661.42c48.61,-53.99 111.18,-96.84 166.9,-156.01l890.94 -959c338.53,-366.64 317.71,-591.03 660.25,-267.64 460.73,434.89 199.83,603.05 153.61,863 123.72,138.75 312.45,140.43 420.11,296.3 -29.58,131.1 -62.49,121.73 -97.09,247.48 124.07,144.29 228.89,93.37 259.39,302.29 -417,209.25 -894.67,-46.03 -1453.79,-48.28 -180.99,-0.72 -401.13,20.29 -604.95,19.23 -136.81,-92.65 -268.71,-191.98 -395.38,-297.38z"/>
 </g>
</svg>
